<svg width="53" height="53" viewBox="0 0 53 53" fill="none" xmlns="http://www.w3.org/2000/svg">
<path d="M36.9692 0H15.1368C5.6535 0 0 5.6535 0 15.1368V36.9431C0 46.4525 5.6535 52.106 15.1368 52.106H36.9431C46.4264 52.106 52.0799 46.4525 52.0799 36.9692V15.1368C52.106 5.6535 46.4525 0 36.9692 0ZM38.6105 31.8889L27.4338 43.0656C27.069 43.4303 26.574 43.6387 26.053 43.6387C25.5319 43.6387 25.0369 43.4303 24.6722 43.0656L13.4954 31.8889C12.7399 31.1333 12.7399 29.8828 13.4954 29.1272C14.251 28.3717 15.5015 28.3717 16.2571 29.1272L24.099 36.9692V10.4212C24.099 9.35302 24.9848 8.46722 26.053 8.46722C27.1212 8.46722 28.007 9.35302 28.007 10.4212V36.9692L35.8489 29.1272C36.6044 28.3717 37.855 28.3717 38.6105 29.1272C39.0013 29.518 39.1837 30.013 39.1837 30.508C39.1837 31.003 38.9753 31.5241 38.6105 31.8889Z" fill="#5C469C"/>
</svg>
