<svg width="53" height="53" viewBox="0 0 53 53" fill="none" xmlns="http://www.w3.org/2000/svg">
<path d="M36.9692 0H15.1368C5.6535 0 0 5.6535 0 15.1368V36.9431C0 46.4525 5.6535 52.106 15.1368 52.106H36.9431C46.4264 52.106 52.0799 46.4525 52.0799 36.9692V15.1368C52.106 5.6535 46.4525 0 36.9692 0ZM38.6105 22.9787C37.855 23.7343 36.6044 23.7343 35.8489 22.9787L28.007 15.1368V41.6848C28.007 42.7529 27.1212 43.6387 26.053 43.6387C24.9848 43.6387 24.099 42.7529 24.099 41.6848V15.1368L16.2571 22.9787C15.5015 23.7343 14.251 23.7343 13.4954 22.9787C13.1046 22.5879 12.9223 22.0929 12.9223 21.5979C12.9223 21.1029 13.1307 20.5819 13.4954 20.2171L24.6722 9.04038C25.0369 8.67564 25.5319 8.46722 26.053 8.46722C26.574 8.46722 27.069 8.67564 27.4338 9.04038L38.6105 20.2171C39.3661 20.9727 39.3661 22.1971 38.6105 22.9787Z" fill="#5C469C"/>
</svg>
