<svg width="51" height="48" viewBox="0 0 51 48" fill="none" xmlns="http://www.w3.org/2000/svg">
<path d="M48.56 6.67367V34.7728C48.56 37.0076 46.7442 39.1026 44.5093 39.382L43.741 39.4753C38.666 40.1505 30.8439 42.7343 26.3742 45.202C25.7689 45.5512 24.7678 45.5512 24.1393 45.202L24.0462 45.1557C19.5763 42.7113 11.7777 40.1505 6.72591 39.4753L6.0507 39.382C3.81582 39.1026 2 37.0076 2 34.7728V6.65037C2 3.88005 4.25809 1.78487 7.02841 2.01767C11.9172 2.41343 19.3203 4.88118 23.4642 7.46526L24.0462 7.81437C24.7213 8.23343 25.8387 8.23343 26.5138 7.81437L26.9096 7.55834C28.3762 6.65042 30.2386 5.74247 32.264 4.92767V14.426L36.92 11.3297L41.576 14.426V2.27387C42.2046 2.15747 42.8098 2.08754 43.3686 2.04098H43.5082C46.2786 1.80818 48.56 3.88007 48.56 6.67367Z" stroke="#8524A7" stroke-width="3.492" stroke-linecap="round" stroke-linejoin="round"/>
<path d="M25.28 8.58273V43.5028" stroke="#8524A7" stroke-width="3.492" stroke-linecap="round" stroke-linejoin="round"/>
<path d="M41.576 2.27396V14.426L36.92 11.3298L32.264 14.426V4.92776C35.3137 3.7172 38.7126 2.73956 41.576 2.27396Z" stroke="#8524A7" stroke-width="3.492" stroke-linecap="round" stroke-linejoin="round"/>
</svg>
