<svg width="47" height="44" viewBox="0 0 47 44" fill="none" xmlns="http://www.w3.org/2000/svg">
<path opacity="0.4" d="M23.28 6.14031V43.4582C23.6758 43.4582 24.0948 43.3883 24.4207 43.2021L24.5138 43.1555C28.9836 40.7111 36.7824 38.1503 41.8342 37.4752L42.5093 37.3821C44.7442 37.1027 46.56 35.0075 46.56 32.7727V4.65037C46.56 1.88005 44.3018 -0.215128 41.5315 0.0176725C36.6427 0.413433 29.2397 2.88118 25.0958 5.46526L24.5138 5.81437C24.1646 6.02389 23.7223 6.14031 23.28 6.14031Z" fill="#8524A7"/>
<path d="M0 4.67328V32.7722C0 35.0071 1.81582 37.1023 4.0507 37.3816L4.81898 37.4747C9.89402 38.1499 17.7161 40.7339 22.1858 43.2016C22.4885 43.3879 22.861 43.4579 23.28 43.4579V6.13992C22.8377 6.13992 22.3954 6.02349 22.0462 5.81397L21.6504 5.55792C17.5065 2.95056 10.0802 0.459622 5.19139 0.0405816H5.05171C2.28139 -0.192218 0 1.87968 0 4.67328Z" fill="#8524A7"/>
<path d="M39.576 0.273956V10.261C39.576 11.1922 38.5517 11.7509 37.7602 11.2387L34.92 9.35309L32.0798 11.2387C31.3116 11.7509 30.264 11.1922 30.264 10.261V2.92778C33.3137 1.71722 36.7126 0.739556 39.576 0.273956Z" fill="#8524A7"/>
</svg>
