<svg width="47" height="47" viewBox="0 0 47 47" fill="none" xmlns="http://www.w3.org/2000/svg">
<path d="M29.7767 46.56H16.7833C5.02415 46.56 0 41.5359 0 29.7767V16.7833C0 5.02415 5.02415 0 16.7833 0H29.7767C41.5359 0 46.56 5.02415 46.56 16.7833V29.7767C46.56 41.5359 41.5359 46.56 29.7767 46.56ZM16.7833 3.24837C6.79993 3.24837 3.24837 6.79993 3.24837 16.7833V29.7767C3.24837 39.7601 6.79993 43.3116 16.7833 43.3116H29.7767C39.7601 43.3116 43.3116 39.7601 43.3116 29.7767V16.7833C43.3116 6.79993 39.7601 3.24837 29.7767 3.24837H16.7833Z" fill="#8524A7"/>
<path d="M16.0903 30.4912C15.1807 30.4912 14.3362 30.2746 13.5999 29.8632C11.8024 28.8453 10.8279 26.8313 10.8279 24.1893V2.57691C10.8279 1.68903 11.5642 0.952728 12.4521 0.952728C13.34 0.952728 14.0763 1.68903 14.0763 2.57691V24.1893C14.0763 25.597 14.4877 26.6364 15.2024 27.0262C15.9603 27.4594 17.1298 27.2428 18.4074 26.4848L21.266 24.774C22.4354 24.0811 24.1029 24.0811 25.2723 24.774L28.1309 26.4848C29.4303 27.2645 30.5997 27.4594 31.336 27.0262C32.0506 26.6148 32.4621 25.5753 32.4621 24.1893V2.57691C32.4621 1.68903 33.1984 0.952728 34.0863 0.952728C34.9741 0.952728 35.7104 1.68903 35.7104 2.57691V24.1893C35.7104 26.8313 34.7359 28.8453 32.9385 29.8632C31.1411 30.881 28.7806 30.6644 26.4634 29.2784L23.6048 27.5676C23.4749 27.481 23.0634 27.481 22.9335 27.5676L20.0749 29.2784C18.7323 30.0797 17.3463 30.4912 16.0903 30.4912Z" fill="#8524A7"/>
<path d="M29.7767 46.56H16.7833C5.02415 46.56 0 41.5359 0 29.7767V16.7833C0 5.02415 5.02415 0 16.7833 0H29.7767C41.5359 0 46.56 5.02415 46.56 16.7833V29.7767C46.56 41.5359 41.5359 46.56 29.7767 46.56ZM16.7833 3.24837C6.79993 3.24837 3.24837 6.79993 3.24837 16.7833V29.7767C3.24837 39.7601 6.79993 43.3116 16.7833 43.3116H29.7767C39.7601 43.3116 43.3116 39.7601 43.3116 29.7767V16.7833C43.3116 6.79993 39.7601 3.24837 29.7767 3.24837H16.7833Z" fill="#8524A7"/>
<path d="M16.0903 30.4912C15.1807 30.4912 14.3362 30.2746 13.5999 29.8632C11.8024 28.8453 10.8279 26.8313 10.8279 24.1893V2.57691C10.8279 1.68903 11.5642 0.952728 12.4521 0.952728C13.34 0.952728 14.0763 1.68903 14.0763 2.57691V24.1893C14.0763 25.597 14.4877 26.6364 15.2024 27.0262C15.9603 27.4594 17.1298 27.2428 18.4074 26.4848L21.266 24.774C22.4354 24.0811 24.1029 24.0811 25.2723 24.774L28.1309 26.4848C29.4303 27.2645 30.5997 27.4594 31.336 27.0262C32.0506 26.6148 32.4621 25.5753 32.4621 24.1893V2.57691C32.4621 1.68903 33.1984 0.952728 34.0863 0.952728C34.9741 0.952728 35.7104 1.68903 35.7104 2.57691V24.1893C35.7104 26.8313 34.7359 28.8453 32.9385 29.8632C31.1411 30.881 28.7806 30.6644 26.4634 29.2784L23.6048 27.5676C23.4749 27.481 23.0634 27.481 22.9335 27.5676L20.0749 29.2784C18.7323 30.0797 17.3463 30.4912 16.0903 30.4912Z" fill="#8524A7"/>
</svg>
