<svg width="47" height="47" viewBox="0 0 47 47" fill="none" xmlns="http://www.w3.org/2000/svg">
<path d="M46.56 13.5253V33.0339C46.56 40.5067 40.5072 46.5595 33.0343 46.5595H13.5257C6.0528 46.5595 0 40.5067 0 33.0339V13.5253C0 7.72857 2.37456 3.51489 6.58824 1.46625C8.12472 0.721291 9.894 1.88529 9.894 3.58473V24.2573C9.894 27.0276 10.9649 29.2392 12.8971 30.3567C14.8526 31.4508 17.3203 31.218 19.8346 29.7048L22.861 27.889C23.0472 27.7959 23.5128 27.7959 23.6525 27.8657L26.7254 29.7048C28.4016 30.7059 29.845 31.0318 31.009 31.0318C32.2195 31.0318 33.1507 30.6593 33.7094 30.3334C35.5951 29.2392 36.666 27.0276 36.666 24.2573V3.58473C36.666 1.88529 38.4586 0.721291 39.9718 1.46625C44.1854 3.51489 46.56 7.72857 46.56 13.5253Z" fill="#8524A7"/>
<path d="M30.846 0C32.1264 0 33.174 1.0476 33.174 2.328V24.2578C33.174 25.7477 32.7317 26.8651 31.9634 27.3074C31.1719 27.773 29.9148 27.5402 28.518 26.7022L25.445 24.863C24.2578 24.1414 22.3022 24.1414 21.115 24.863L18.042 26.7022C16.6452 27.5402 15.3881 27.7498 14.5966 27.3074C13.8283 26.8651 13.386 25.7477 13.386 24.2578V2.328C13.386 1.0476 14.4336 0 15.714 0H30.846Z" fill="#8524A7"/>
</svg>
