<svg width="22" height="22" viewBox="0 0 22 22" fill="none" xmlns="http://www.w3.org/2000/svg">
<path d="M21.3735 10.6868C21.3735 4.79836 16.5752 0 10.6868 0C4.79836 0 0 4.79836 0 10.6868C0 13.7859 1.33585 16.5752 3.45182 18.5308C3.45182 18.5415 3.45182 18.5415 3.44114 18.5522C3.548 18.6591 3.67625 18.7446 3.78311 18.8408C3.84723 18.8942 3.90067 18.9476 3.96479 18.9904C4.15715 19.1507 4.37089 19.3003 4.57393 19.4499C4.64874 19.5033 4.71286 19.5461 4.78767 19.5995C4.99072 19.7385 5.20445 19.8667 5.42887 19.9842C5.50368 20.027 5.58918 20.0804 5.66398 20.1232C5.87772 20.2407 6.10214 20.3476 6.33725 20.4438C6.42274 20.4865 6.50824 20.5293 6.59373 20.5613C6.82884 20.6575 7.06395 20.743 7.29906 20.8178C7.38455 20.8499 7.47005 20.8819 7.55554 20.9033C7.81202 20.9781 8.06851 21.0422 8.32499 21.1064C8.3998 21.1277 8.4746 21.1491 8.5601 21.1598C8.85933 21.2239 9.15856 21.2667 9.46847 21.2987C9.51122 21.2987 9.55396 21.3094 9.59671 21.3201C9.96006 21.3522 10.3234 21.3735 10.6868 21.3735C11.0501 21.3735 11.4135 21.3522 11.7661 21.3201C11.8089 21.3201 11.8516 21.3094 11.8944 21.2987C12.2043 21.2667 12.5035 21.2239 12.8027 21.1598C12.8775 21.1491 12.9524 21.117 13.0378 21.1064C13.2943 21.0422 13.5615 20.9888 13.8073 20.9033C13.8928 20.8712 13.9783 20.8392 14.0638 20.8178C14.2989 20.7323 14.5447 20.6575 14.7691 20.5613C14.8546 20.5293 14.9401 20.4865 15.0256 20.4438C15.25 20.3476 15.4744 20.2407 15.6989 20.1232C15.7843 20.0804 15.8592 20.027 15.934 19.9842C16.1477 19.856 16.3614 19.7385 16.5752 19.5995C16.65 19.5568 16.7141 19.5033 16.7889 19.4499C17.0026 19.3003 17.2057 19.1507 17.3981 18.9904C17.4622 18.9369 17.5156 18.8835 17.5797 18.8408C17.6973 18.7446 17.8148 18.6484 17.9217 18.5522C17.9217 18.5415 17.9217 18.5415 17.911 18.5308C20.0377 16.5752 21.3735 13.7859 21.3735 10.6868ZM15.966 15.9981C13.0699 14.0531 8.32499 14.0531 5.4075 15.9981C4.93728 16.308 4.55256 16.6713 4.23196 17.0668C2.60757 15.421 1.60301 13.1661 1.60301 10.6868C1.60301 5.67467 5.67467 1.60301 10.6868 1.60301C15.6989 1.60301 19.7705 5.67467 19.7705 10.6868C19.7705 13.1661 18.766 15.421 17.1416 17.0668C16.8317 16.6713 16.4362 16.308 15.966 15.9981Z" fill="#292D32"/>
<path d="M10.6868 5.26825C8.47461 5.26825 6.67923 7.06363 6.67923 9.2758C6.67923 11.4452 8.37842 13.2085 10.6333 13.2726H10.7295H10.8043H10.8257C12.9844 13.1978 14.6836 11.4452 14.6943 9.2758C14.6943 7.06363 12.8989 5.26825 10.6868 5.26825Z" fill="#292D32"/>
</svg>
