<svg width="49" height="49" viewBox="0 0 49 49" fill="none" xmlns="http://www.w3.org/2000/svg">
<path d="M37.1052 48.275C35.9068 48.275 34.3693 47.8906 32.4473 46.76L25.6866 42.7579C24.9856 42.3509 23.6289 42.3509 22.9506 42.7579L16.1673 46.76C12.1651 49.1342 9.81353 48.1845 8.7508 47.4158C7.71069 46.647 6.08268 44.6798 7.14541 40.1576L8.7508 33.2159C8.93169 32.4924 8.56991 31.2488 8.02724 30.7061L2.41967 25.0985C-0.384124 22.2947 -0.158012 19.8979 0.226378 18.7221C0.610769 17.5463 1.83177 15.4661 5.7209 14.8103L12.9339 13.6119C13.6122 13.4989 14.5845 12.7753 14.8784 12.1648L18.8806 4.18307C20.6895 0.542669 23.0637 0 24.3073 0C25.5509 0 27.9251 0.542669 29.734 4.18307L33.7135 12.1422C34.0301 12.7527 35.0024 13.4763 35.6807 13.5893L42.8937 14.7877C46.8054 15.4435 48.0264 17.5237 48.3882 18.6995C48.75 19.8753 48.9761 22.2721 46.1949 25.0759L40.5873 30.7061C40.0447 31.2488 39.7055 32.4698 39.8638 33.2159L41.4692 40.1576C42.5093 44.6798 40.9039 46.647 39.8638 47.4158C39.2985 47.8228 38.3941 48.275 37.1052 48.275ZM24.3073 39.0496C25.4152 39.0496 26.5232 39.321 27.405 39.841L34.1658 43.8432C36.1329 45.019 37.3765 45.019 37.8514 44.6798C38.3262 44.3406 38.6654 43.1422 38.1679 40.9263L36.5625 33.9847C36.1329 32.108 36.8339 29.6886 38.1905 28.3093L43.7981 22.7017C44.9061 21.5938 45.4035 20.5084 45.1774 19.7623C44.9287 19.016 43.8886 18.4055 42.351 18.1568L35.138 16.9584C33.397 16.6645 31.4976 15.2626 30.7062 13.6798L26.7267 5.72063C26.0031 4.27352 25.0987 3.41429 24.3073 3.41429C23.5159 3.41429 22.6114 4.27352 21.9105 5.72063L17.9083 13.6798C17.1169 15.2626 15.2176 16.6645 13.4765 16.9584L6.28618 18.1568C4.74862 18.4055 3.7085 19.016 3.45978 19.7623C3.21106 20.5084 3.73112 21.6164 4.83906 22.7017L10.4466 28.3093C11.8033 29.666 12.5043 32.108 12.0746 33.9847L10.4693 40.9263C9.9492 43.1649 10.311 44.3406 10.7858 44.6798C11.2606 45.019 12.4817 44.9964 14.4714 43.8432L21.2321 39.841C22.0914 39.321 23.1993 39.0496 24.3073 39.0496Z" fill="#5C469C"/>
</svg>
