<svg width="47" height="47" viewBox="0 0 47 47" fill="none" xmlns="http://www.w3.org/2000/svg">
<path d="M22.0563 44.1127C9.89846 44.1127 0 34.2142 0 22.0563C0 9.89846 9.89846 0 22.0563 0C34.2142 0 44.1127 9.89846 44.1127 22.0563C44.1127 34.2142 34.2142 44.1127 22.0563 44.1127ZM22.0563 3.22776C11.663 3.22776 3.22776 11.6845 3.22776 22.0563C3.22776 32.4282 11.663 40.8849 22.0563 40.8849C32.4497 40.8849 40.8849 32.4282 40.8849 22.0563C40.8849 11.6845 32.4497 3.22776 22.0563 3.22776Z" fill="white"/>
<path d="M44.6515 46.2643C44.2426 46.2643 43.8338 46.1137 43.511 45.7909L39.2073 41.4872C38.5833 40.8632 38.5833 39.8303 39.2073 39.2063C39.8314 38.5822 40.8643 38.5822 41.4883 39.2063L45.792 43.5099C46.416 44.134 46.416 45.1669 45.792 45.7909C45.4692 46.1137 45.0603 46.2643 44.6515 46.2643Z" fill="white"/>
</svg>
